HIERARCHY
ROOT Hips
{
    OFFSET   0.000000   0.000000   0.000000
    CHANNELS 6 Xposition Yposition Zposition Zrotation Xrotation Yrotation
    JOINT Chest
    {
        OFFSET   0.000000   8.007230   0.000000
        CHANNELS 3 Zrotation Xrotation Yrotation
        JOINT Chest2
        {
            OFFSET   0.000000  22.077100   0.000000
            CHANNELS 3 Zrotation Xrotation Yrotation
            JOINT Neck
            {
                OFFSET   0.000000  23.255100   0.000000
                CHANNELS 3 Zrotation Xrotation Yrotation
                JOINT Head
                {
                    OFFSET   0.000000  14.370100   1.956600
                    CHANNELS 3 Zrotation Xrotation Yrotation
                    End Site
                    {
                        OFFSET   0.000000  19.566000   0.000000
                    }
                }
            }
            JOINT LeftCollar
            {
                OFFSET   3.911900  19.017000  -0.467063
                CHANNELS 3 Zrotation Xrotation Yrotation
                JOINT LeftShoulder
                {
                    OFFSET  10.383700   0.000000   0.000000
                    CHANNELS 3 Zrotation Xrotation Yrotation
                    JOINT LeftElbow
                    {
                        OFFSET  26.662100   0.001193   0.000980
                        CHANNELS 3 Zrotation Xrotation Yrotation
                        JOINT LeftWrist
                        {
                            OFFSET  28.869000  -0.000059  -0.000082
                            CHANNELS 3 Zrotation Xrotation Yrotation
                            JOINT LeftFinger0
                            {
                                OFFSET   2.044650  -2.323450   3.252850
                                CHANNELS 3 Zrotation Xrotation Yrotation
                                JOINT LeftFinger01
                                {
                                    OFFSET   3.088130   0.000000   0.000000
                                    CHANNELS 3 Zrotation Xrotation Yrotation
                                    JOINT LeftFinger02
                                    {
                                        OFFSET   2.639460   0.000000   0.000000
                                        CHANNELS 3 Zrotation Xrotation Yrotation
                                        End Site
                                        {
                                            OFFSET   2.582190   0.000000   0.000000
                                        }
                                    }
                                }
                            }
                            JOINT LeftFinger1
                            {
                                OFFSET   8.364480   0.000000   3.252850
                                CHANNELS 3 Zrotation Xrotation Yrotation
                                JOINT LeftFinger11
                                {
                                    OFFSET   4.646930   0.000000   0.000000
                                    CHANNELS 3 Zrotation Xrotation Yrotation
                                    JOINT LeftFinger12
                                    {
                                        OFFSET   2.323470   0.000000   0.000000
                                        CHANNELS 3 Zrotation Xrotation Yrotation
                                        End Site
                                        {
                                            OFFSET   2.273050   0.000000   0.000000
                                        }
                                    }
                                }
                            }
                            JOINT LeftFinger2
                            {
                                OFFSET   8.364490   0.000016   1.078090
                                CHANNELS 3 Zrotation Xrotation Yrotation
                                JOINT LeftFinger21
                                {
                                    OFFSET   5.111610   0.000000   0.000000
                                    CHANNELS 3 Zrotation Xrotation Yrotation
                                    JOINT LeftFinger22
                                    {
                                        OFFSET   2.788150   0.000016   0.000000
                                        CHANNELS 3 Zrotation Xrotation Yrotation
                                        End Site
                                        {
                                            OFFSET   2.727660   0.000000   0.000000
                                        }
                                    }
                                }
                            }
                            JOINT LeftFinger3
                            {
                                OFFSET   7.899780   0.000015  -1.078090
                                CHANNELS 3 Zrotation Xrotation Yrotation
                                JOINT LeftFinger31
                                {
                                    OFFSET   4.646930   0.000000   0.000000
                                    CHANNELS 3 Zrotation Xrotation Yrotation
                                    JOINT LeftFinger32
                                    {
                                        OFFSET   2.323470   0.000000   0.000000
                                        CHANNELS 3 Zrotation Xrotation Yrotation
                                        End Site
                                        {
                                            OFFSET   2.273050   0.000000   0.000000
                                        }
                                    }
                                }
                            }
                            JOINT LeftFinger4
                            {
                                OFFSET   7.435090   0.000000  -3.252850
                                CHANNELS 3 Zrotation Xrotation Yrotation
                                JOINT LeftFinger41
                                {
                                    OFFSET   3.717550   0.000000   0.000000
                                    CHANNELS 3 Zrotation Xrotation Yrotation
                                    JOINT LeftFinger42
                                    {
                                        OFFSET   1.858770   0.000000   0.000000
                                        CHANNELS 3 Zrotation Xrotation Yrotation
                                        End Site
                                        {
                                            OFFSET   1.818440   0.000000   0.000000
                                        }
                                    }
                                }
                            }
                        }
                    }
                }
            }
            JOINT RightCollar
            {
                OFFSET  -3.911910  19.017000  -0.467062
                CHANNELS 3 Zrotation Xrotation Yrotation
                JOINT RightShoulder
                {
                    OFFSET -10.383700   0.000014   0.000000
                    CHANNELS 3 Zrotation Xrotation Yrotation
                    JOINT RightElbow
                    {
                        OFFSET -26.662100   0.001225   0.001091
                        CHANNELS 3 Zrotation Xrotation Yrotation
                        JOINT RightWrist
                        {
                            OFFSET -28.869000  -0.000020  -0.000085
                            CHANNELS 3 Zrotation Xrotation Yrotation
                            JOINT RightFinger0
                            {
                                OFFSET  -2.044650  -2.323490   3.252850
                                CHANNELS 3 Zrotation Xrotation Yrotation
                                JOINT RightFinger01
                                {
                                    OFFSET  -3.088130   0.000000   0.000000
                                    CHANNELS 3 Zrotation Xrotation Yrotation
                                    JOINT RightFinger02
                                    {
                                        OFFSET  -2.639460   0.000000   0.000000
                                        CHANNELS 3 Zrotation Xrotation Yrotation
                                        End Site
                                        {
                                            OFFSET  -2.582190   0.000000   0.000000
                                        }
                                    }
                                }
                            }
                            JOINT RightFinger1
                            {
                                OFFSET  -8.364480   0.000000   3.252850
                                CHANNELS 3 Zrotation Xrotation Yrotation
                                JOINT RightFinger11
                                {
                                    OFFSET  -4.646930   0.000000   0.000000
                                    CHANNELS 3 Zrotation Xrotation Yrotation
                                    JOINT RightFinger12
                                    {
                                        OFFSET  -2.323470   0.000000   0.000000
                                        CHANNELS 3 Zrotation Xrotation Yrotation
                                        End Site
                                        {
                                            OFFSET  -2.273050   0.000000   0.000000
                                        }
                                    }
                                }
                            }
                            JOINT RightFinger2
                            {
                                OFFSET  -8.364480   0.000000   1.078090
                                CHANNELS 3 Zrotation Xrotation Yrotation
                                JOINT RightFinger21
                                {
                                    OFFSET  -5.111620   0.000000   0.000000
                                    CHANNELS 3 Zrotation Xrotation Yrotation
                                    JOINT RightFinger22
                                    {
                                        OFFSET  -2.788160   0.000000   0.000000
                                        CHANNELS 3 Zrotation Xrotation Yrotation
                                        End Site
                                        {
                                            OFFSET  -2.727660   0.000000   0.000000
                                        }
                                    }
                                }
                            }
                            JOINT RightFinger3
                            {
                                OFFSET  -7.899780   0.000000  -1.078090
                                CHANNELS 3 Zrotation Xrotation Yrotation
                                JOINT RightFinger31
                                {
                                    OFFSET  -4.646930   0.000000   0.000000
                                    CHANNELS 3 Zrotation Xrotation Yrotation
                                    JOINT RightFinger32
                                    {
                                        OFFSET  -2.323470   0.000000   0.000000
                                        CHANNELS 3 Zrotation Xrotation Yrotation
                                        End Site
                                        {
                                            OFFSET  -2.273050   0.000000   0.000000
                                        }
                                    }
                                }
                            }
                            JOINT RightFinger4
                            {
                                OFFSET  -7.435090   0.000000  -3.252850
                                CHANNELS 3 Zrotation Xrotation Yrotation
                                JOINT RightFinger41
                                {
                                    OFFSET  -3.717550   0.000000   0.000000
                                    CHANNELS 3 Zrotation Xrotation Yrotation
                                    JOINT RightFinger42
                                    {
                                        OFFSET  -1.858760   0.000000   0.000000
                                        CHANNELS 3 Zrotation Xrotation Yrotation
                                        End Site
                                        {
                                            OFFSET  -1.818440   0.000000   0.000000
                                        }
                                    }
                                }
                            }
                        }
                    }
                }
            }
        }
    }
    JOINT LeftHip
    {
        OFFSET   9.783030   0.000000   0.000000
        CHANNELS 3 Zrotation Xrotation Yrotation
        JOINT LeftKnee
        {
            OFFSET   0.000063 -41.789100   0.000608
            CHANNELS 3 Zrotation Xrotation Yrotation
            JOINT LeftAnkle
            {
                OFFSET   0.000048 -41.133200  -0.000184
                CHANNELS 3 Zrotation Xrotation Yrotation
                JOINT LeftToe
                {
                    OFFSET   0.000000  -6.358960  14.674500
                    CHANNELS 3 Zrotation Xrotation Yrotation
                    End Site
                    {
                        OFFSET   0.000000   0.000000   3.913200
                    }
                }
            }
        }
    }
    JOINT RightHip
    {
        OFFSET  -9.783030   0.000000   0.000000
        CHANNELS 3 Zrotation Xrotation Yrotation
        JOINT RightKnee
        {
            OFFSET   0.000071 -41.789100   0.001239
            CHANNELS 3 Zrotation Xrotation Yrotation
            JOINT RightAnkle
            {
                OFFSET   0.000037 -41.133200  -0.000166
                CHANNELS 3 Zrotation Xrotation Yrotation
                JOINT RightToe
                {
                    OFFSET   0.000000  -6.358960  14.674500
                    CHANNELS 3 Zrotation Xrotation Yrotation
                    End Site
                    {
                        OFFSET   0.000000   0.000000   3.913200
                    }
                }
            }
        }
    }
}
MOTION
Frames: 4
Frame Time:   0.016667
 -1.774110  89.385500   0.806120  -2.926320 -18.117800   0.186194   1.256050  10.731900   1.803470   2.216500  21.496500   3.454640   6.991320   1.520050  -0.187105  11.506900   2.944030  -4.701150  -6.195990  -8.097970  -1.256250 -68.376300  25.649700  -3.655550  -2.830590 -10.527800 -14.739400  15.918700 -10.630100   8.228120  36.430200  28.597700 -52.175400 -34.496800   0.000217   0.001285 -12.248500   0.000596  -0.003149 -33.490300   6.890520 -10.278000 -27.910400   0.008524  -0.001044 -19.537200   0.000598  -0.009856 -28.684800  -2.132030   3.889440 -40.536100  -0.000179  -0.002090 -26.997100   0.003925  -0.004361 -28.722500  -2.134510   3.888090 -42.323700   0.000650  -0.002091 -28.187600   0.007175  -0.010808 -32.878500  -2.410260   3.723590 -49.434600   0.000728   0.000040 -32.923400   0.001103  -0.009344   2.949580  -9.799000   9.865310   6.023370  -1.614310  72.959900 -26.134700 -11.385100  32.672500  66.459800 -26.832600  31.303100 -55.304500  34.994100  53.069200   9.810200   0.003895   0.008191  -0.094754   0.002556   0.310617   1.817160  -0.444908  -8.551670   1.646470  -0.102171  -0.018848   0.893245  -0.074754  -0.004058  -9.504410   2.270940 -14.738000   0.746342  -0.071638  -0.038895   0.531244  -0.050709  -0.024164   5.339450  -2.293070 -14.672600   3.506170  -0.250657  -0.052835   2.451660  -0.178345  -0.016381   5.205880  -2.207400 -22.038200   5.851620  -0.373420   0.036756   4.230050  -0.225859   0.059010   4.476930  21.692300   4.220760   1.766250   0.086699   5.155070  -3.273110  -4.047330  -0.932403  -0.000000   0.000000   0.000000   4.249690  20.482300  -3.450300  -0.402985   2.664850  -7.660720  -1.212710  -6.005110  -2.482990  -0.000000   0.000000   0.000000
 -1.783840  89.412100   0.787215  -2.956390 -18.133000   0.098307   1.303310  10.691200   1.770760   2.325440  21.416000   3.379560   6.778940   1.556920  -0.185978  11.158500   3.025700  -4.381870  -6.229380  -8.055540  -1.202910 -68.438700  25.738100  -3.717300  -2.811480 -10.551600 -14.578100  15.996100 -10.469200   8.238380  36.355300  28.438000 -52.100500 -34.513700   0.000175   0.001169 -12.256900   0.000575  -0.003138 -33.533100   6.933270 -10.323300 -27.949200   0.008530  -0.001033 -19.564400   0.000586  -0.009853 -28.686000  -2.118200   3.863810 -40.605400  -0.000198  -0.002059 -27.043200   0.003884  -0.004370 -28.722900  -2.120560   3.862520 -42.389700   0.000613  -0.002061 -28.231600   0.007188  -0.010789 -32.903600  -2.396630   3.697750 -49.471300   0.000687   0.000000 -32.947900   0.001050  -0.009352   2.985460  -9.671060  10.004700   9.163440  -1.620770  73.815600 -26.519800  -8.622420  33.965000  48.317300 -21.177400  14.444200 -59.017400  41.425300  60.364500  15.395500  -0.078729   0.021742   2.697590  -0.038291   0.150595  -5.130580   0.225789 -10.996400   0.000074   0.040333  -0.003955  -0.522133   0.028174  -0.004974 -15.300000   4.130650 -14.483400   0.000109   0.045353  -0.005670  -0.289341   0.030063  -0.004645  -7.602430   1.657810 -14.756500   0.060703  -0.030189  -0.070791   0.040402  -0.023414  -0.052058  -3.769690   0.949182 -27.214500   0.000020  -0.046324  -0.083053  -0.093349  -0.038977  -0.064809   4.482580  21.747500   4.229400   1.764260   0.040905   5.196350  -3.271350  -4.031290  -0.910880   0.000000   0.000000  -0.000000   4.251730  20.480300  -3.426380  -0.403810   2.692360  -7.616140  -1.180800  -6.012630  -2.456960  -0.000000   0.000000   0.000000
 -1.784360  89.432700   0.771975  -2.997150 -18.143900  -0.004657   1.319520  10.654500   1.805140   2.353200  21.338000   3.448210   6.621640   1.579800  -0.185185  10.899700   3.076260  -4.191280  -6.250880  -8.065850  -1.215810 -68.461700  25.818700  -3.754570  -2.770380 -10.612700 -14.519000  15.997000 -10.302600   8.223460  36.287300  28.255600 -51.985400 -34.484900   0.000088   0.001049 -12.242500   0.000585  -0.003119 -33.576000   6.984770 -10.381400 -27.991000   0.008535  -0.001019 -19.593700   0.000581  -0.009850 -28.688700  -2.089240   3.810580 -40.664300  -0.000218  -0.002028 -27.082400   0.003844  -0.004379 -28.725300  -2.091530   3.809330 -42.510300   0.000575  -0.002032 -28.311900   0.007202  -0.010771 -32.953500  -2.366760   3.644920 -49.543000   0.000645  -0.000000 -32.995700   0.001019  -0.009394   2.964920  -9.494070  10.075300  11.264300  -1.451050  74.342100 -26.083600  -5.608130  34.629300  27.821000  -8.355690   0.336939 -67.552600  47.496000  70.337800  17.985200  -0.051955  -0.058261   3.992390  -0.027318   0.010507 -10.873500   0.166167  -9.378060   0.000006   0.006489   0.023225  -0.602626   0.004402   0.012091 -14.752900   3.743000 -13.885000  -0.000065  -0.036409   0.051307  -0.807459  -0.023535   0.034077 -17.018800   3.776750 -14.158900   0.007480   0.001944  -0.030902  -0.231225   0.000192  -0.023038  -7.871880   2.250100 -26.480600  -0.000360  -0.089276   0.029532  -0.992406  -0.061182   0.016811   4.472910  21.805500   4.211520   1.775270  -0.015128   5.258510  -3.264270  -4.007870  -0.851339  -0.000000   0.000000   0.000000   4.241420  20.482000  -3.426470  -0.396903   2.697410  -7.553990  -1.143310  -5.998760  -2.402340  -0.000000   0.000000  -0.000000
 -1.784430  89.453200   0.756877  -3.036290 -18.149100  -0.109709   1.316100  10.625700   1.907320   2.326150  21.287800   3.658160   6.546760   1.590740  -0.182741  10.776600   3.100300  -4.120490  -6.273490  -8.092940  -1.306030 -68.455600  25.855000  -3.801120  -2.694800 -10.652300 -14.512000  15.985800 -10.211900   8.195150  36.269000  28.102900 -51.882500 -34.420900   0.000000   0.000929 -12.210400   0.000594  -0.003101 -33.614500   7.032390 -10.435500 -28.028700   0.008540  -0.001007 -19.620100   0.000576  -0.009846 -28.692000  -2.056460   3.750490 -40.697600  -0.000239  -0.001998 -27.104600   0.003804  -0.004389 -28.728300  -2.058710   3.749270 -42.647300   0.000538  -0.002005 -28.403100   0.007216  -0.010753 -33.003400  -2.332550   3.585540 -49.614400   0.000605  -0.000000 -33.043200   0.000997  -0.009452   2.935300  -9.317120  10.094200  12.271000  -1.060670  74.760600 -25.530900  -2.171050  34.881500   9.891970   5.157140  -6.813560 -72.722800  50.381400  77.793200  19.294700  -0.003199  -0.138264   4.647250  -0.005355  -0.069559 -13.702800   0.045033  -5.871930   0.000020  -0.027356   0.041991  -0.614114  -0.019371   0.029155 -11.688600   2.738470 -12.704300   0.000060  -0.118170   0.090244  -0.931411  -0.077646   0.061151 -21.623300   4.675250 -12.667100  -0.000131   0.007490   0.008986  -0.270033   0.005138   0.005982  -9.140730   2.699980 -23.179300  -0.000110  -0.147788   0.142116  -1.120710  -0.093913   0.098431   4.454120  21.841500   4.167830   1.794820  -0.050789   5.331280  -3.252320  -3.992380  -0.775237   0.000000   0.000000   0.000000   4.217360  20.483800  -3.426910  -0.381431   2.698460  -7.492020  -1.108320  -5.969520  -2.330830  -0.000000   0.000000   0.000000
